<svg id="Capa_1" data-name="Capa 1" xmlns="http://www.w3.org/2000/svg" viewBox="0 0 263.58 236.47"><defs><style>.cls-1{fill:#fff;}.cls-2{fill:#1d1d1b;}.cls-3,.cls-4{fill:none;stroke-miterlimit:10;stroke-width:3px;}.cls-3{stroke:#1d1d1b;}.cls-4{stroke:#fff;}</style></defs><title>GatoLogo</title><path class="cls-1" d="M68.62,138.55c49.24,10.93,64.47,42,64.47,42C114.58,199.5,90.71,188,90.71,188,57.32,172.78,68.62,138.55,68.62,138.55Z" transform="translate(-18.91 -22.59)"/><path class="cls-1" d="M118.82,92.12,76,115c-5.63-33.78,5.38-58,5.38-58Z" transform="translate(-18.91 -22.59)"/><path class="cls-1" d="M168.31,180.55c18.51,18.95,42.38,7.49,42.38,7.49,33.38-15.26,22.08-49.49,22.08-49.49C183.54,149.48,168.31,180.55,168.31,180.55Zm112.6-41.43s3.71,54.92-39.52,91c0,0-31.61,27.54-90.69,27.45V78h16.76l56-53.16s22.25,29.07,16.91,92.51C240.42,117.34,250.88,134.66,280.91,139.12ZM225.41,115C231,81.24,220,57,220,57L182.58,92.12Z" transform="translate(-18.91 -22.59)"/><path class="cls-2" d="M210.69,188s-23.87,11.46-42.38-7.49c0,0,15.23-31.07,64.46-42C232.77,138.55,244.07,172.78,210.69,188Z" transform="translate(-18.91 -22.59)"/><path class="cls-2" d="M220,57s11,24.24,5.38,58l-42.83-22.9Z" transform="translate(-18.91 -22.59)"/><path class="cls-2" d="M90.71,188s23.87,11.46,42.38-7.49c0,0-15.23-31.07-64.47-42C68.62,138.55,57.32,172.78,90.71,188ZM76,115l42.83-22.9L81.37,57S70.36,81.24,76,115ZM150.7,78V257.56C91.62,257.65,60,230.11,60,230.11c-43.24-36.07-39.52-91-39.52-91,30-4.46,40.49-21.78,40.49-21.78C55.64,53.9,77.89,24.83,77.89,24.83L133.94,78Z" transform="translate(-18.91 -22.59)"/><path class="cls-3" d="M168.31,180.55s15.23-31.07,64.46-42c0,0,11.3,34.23-22.08,49.49C210.69,188,186.82,199.5,168.31,180.55Z" transform="translate(-18.91 -22.59)"/><path class="cls-3" d="M225.41,115l-42.83-22.9L220,57S231,81.24,225.41,115Z" transform="translate(-18.91 -22.59)"/><path class="cls-3" d="M150.7,78h16.76l56-53.16s22.25,29.07,16.91,92.51c0,0,10.46,17.32,40.49,21.78,0,0,3.71,54.92-39.52,91,0,0-31.61,27.54-90.69,27.45" transform="translate(-18.91 -22.59)"/><path class="cls-3" d="M133.08,180.53c-.47-.95-16-31.22-64.46-42,0,0-11.3,34.23,22.09,49.49,0,0,23.87,11.46,42.38-7.49A0,0,0,0,0,133.08,180.53Z" transform="translate(-18.91 -22.59)"/><path class="cls-3" d="M76,115l42.83-22.9L81.37,57S70.36,81.24,76,115Z" transform="translate(-18.91 -22.59)"/><path class="cls-4" d="M150.7,78H133.94l-56-53.16S55.64,53.9,61,117.34c0,0-10.46,17.32-40.49,21.78,0,0-3.72,54.92,39.52,91,0,0,31.61,27.54,90.69,27.45" transform="translate(-18.91 -22.59)"/></svg>